<svg width="80" height="44" viewBox="0 0 80 44" fill="none" xmlns="http://www.w3.org/2000/svg">
<ellipse cx="57.8394" cy="22" rx="22.1607" ry="22" fill="#FF0000"/>
<path d="M12.0492 22.5322C12.0492 23.4136 11.5587 24.2809 10.5777 25.1339C9.61089 25.987 8.43086 26.6694 7.03756 27.1812C5.65848 27.6788 4.34338 27.9276 3.09226 27.9276C2.552 27.9276 1.91933 27.6006 1.19425 26.9466C0.469171 26.2784 0.10663 25.7311 0.10663 25.3045C0.10663 25.0628 0.15639 24.8709 0.255911 24.7287C0.36965 24.5866 0.497605 24.5155 0.639778 24.5155C0.781951 24.5155 1.09473 24.6363 1.57812 24.878C2.07573 25.1055 2.44537 25.2192 2.68707 25.2192C2.94298 25.2192 3.19178 25.1979 3.43348 25.1553C3.07804 25.0131 2.72261 24.7643 2.36718 24.4088C2.01175 24.0534 1.83403 23.7122 1.83403 23.3852C1.83403 23.243 2.06862 22.2123 2.53779 20.2929C3.00696 18.3594 3.25576 16.7102 3.2842 15.3453C3.02828 15.1036 2.7937 14.8122 2.58044 14.471C2.3814 14.1155 2.28188 13.8525 2.28188 13.6819C2.28188 13.2838 2.59466 12.9639 3.22022 12.7222C3.84578 12.4805 4.62773 12.3597 5.56607 12.3597C7.55649 12.3597 9.14883 12.6227 10.3431 13.1487C11.5516 13.6748 12.1558 14.5136 12.1558 15.6652C12.1558 16.3903 11.8501 17.1296 11.2388 17.8831C10.6274 18.6366 9.82415 19.3262 8.82894 19.9517L9.0422 20.0157C9.89524 20.2432 10.6061 20.5844 11.1748 21.0393C11.7577 21.4801 12.0492 21.9777 12.0492 22.5322ZM8.27447 15.0894C7.83373 15.0894 6.79587 15.2458 5.16088 15.5586C5.6727 16.1273 5.92861 16.6035 5.92861 16.9874C5.92861 17.3571 5.80777 18.0466 5.56607 19.056C5.79355 18.8854 6.19874 18.6366 6.78165 18.3096C7.36456 17.9826 7.7271 17.7694 7.86927 17.6698C8.02566 17.5561 8.23181 17.3926 8.48773 17.1793C8.97111 16.7955 9.21281 16.3547 9.21281 15.8571C9.21281 15.3453 8.90003 15.0894 8.27447 15.0894ZM9.36209 22.4469C9.36209 22.1625 8.94979 21.9208 8.12518 21.7218C7.3148 21.5085 6.63948 21.4019 6.09922 21.4019C5.80066 21.4019 5.48077 21.1815 5.13955 20.7408C4.49977 23.371 4.11591 24.814 3.98795 25.0699C5.1822 24.814 6.37646 24.4231 7.57071 23.897C8.76496 23.371 9.36209 22.8876 9.36209 22.4469ZM23.3311 21.7644C23.587 21.9919 23.7149 22.1981 23.7149 22.3829C23.7149 22.5677 23.6296 22.9516 23.459 23.5345C23.2884 24.1174 23.1747 24.5723 23.1178 24.8993C23.061 25.2121 23.0112 25.4609 22.9685 25.6457C22.9401 25.8306 22.9188 25.9799 22.9046 26.0936C22.8903 26.1931 22.8619 26.3211 22.8193 26.4775C22.7908 26.6338 22.7624 26.7618 22.734 26.8613C22.7197 26.9466 22.6913 27.0533 22.6486 27.1812C22.6202 27.295 22.5847 27.3874 22.542 27.4585C22.4994 27.5153 22.4496 27.5793 22.3927 27.6504C22.3074 27.7641 22.1653 27.821 21.9662 27.821C21.7672 27.821 21.5184 27.622 21.2198 27.2239C20.9355 26.8258 20.7222 26.3424 20.58 25.7737C19.2436 27.1386 18.1204 27.821 17.2105 27.821C16.5992 27.821 15.9381 27.4869 15.2272 26.8187C14.5164 26.1362 14.1609 25.4609 14.1609 24.7927C14.1609 24.1103 14.4666 23.1435 15.0779 21.8924C15.6893 20.6413 16.521 19.4825 17.5731 18.4163C18.6394 17.35 19.6915 16.8168 20.7293 16.8168C21.3264 16.8168 22.016 17.1651 22.7979 17.8618C23.5799 18.5584 23.9709 19.1982 23.9709 19.7811C23.9709 20.3498 23.7576 21.0109 23.3311 21.7644ZM17.1252 25.1339C17.6939 25.1339 18.4474 24.7501 19.3858 23.9823C20.3383 23.2004 20.9284 22.2194 21.1558 21.0393C21.1701 20.8687 21.2909 20.7692 21.5184 20.7408C21.4757 19.9304 21.3407 19.5252 21.1132 19.5252C20.5445 19.5252 19.9047 19.8949 19.1938 20.6342C18.4972 21.3734 17.9214 22.1625 17.4664 23.0013C17.0257 23.8402 16.8053 24.4586 16.8053 24.8567C16.8053 24.9704 16.8196 25.0486 16.848 25.0913C16.8906 25.1197 16.9831 25.1339 17.1252 25.1339ZM34.6288 21.7644C34.8847 21.9919 35.0127 22.1981 35.0127 22.3829C35.0127 22.5677 34.9274 22.9516 34.7568 23.5345C34.5862 24.1174 34.4724 24.5723 34.4156 24.8993C34.3587 25.2121 34.3089 25.4609 34.2663 25.6457C34.2379 25.8306 34.2165 25.9799 34.2023 26.0936C34.1881 26.1931 34.1597 26.3211 34.117 26.4775C34.0886 26.6338 34.0601 26.7618 34.0317 26.8613C34.0175 26.9466 33.9891 27.0533 33.9464 27.1812C33.918 27.295 33.8824 27.3874 33.8398 27.4585C33.7971 27.5153 33.7474 27.5793 33.6905 27.6504C33.6052 27.7641 33.463 27.821 33.264 27.821C33.0649 27.821 32.8161 27.622 32.5176 27.2239C32.2332 26.8258 32.02 26.3424 31.8778 25.7737C30.5414 27.1386 29.4182 27.821 28.5083 27.821C27.8969 27.821 27.2358 27.4869 26.525 26.8187C25.8141 26.1362 25.4587 25.4609 25.4587 24.7927C25.4587 24.1103 25.7643 23.1435 26.3757 21.8924C26.987 20.6413 27.8187 19.4825 28.8708 18.4163C29.9371 17.35 30.9892 16.8168 32.0271 16.8168C32.6242 16.8168 33.3137 17.1651 34.0957 17.8618C34.8776 18.5584 35.2686 19.1982 35.2686 19.7811C35.2686 20.3498 35.0553 21.0109 34.6288 21.7644ZM28.423 25.1339C28.9917 25.1339 29.7452 24.7501 30.6835 23.9823C31.6361 23.2004 32.2261 22.2194 32.4536 21.0393C32.4678 20.8687 32.5886 20.7692 32.8161 20.7408C32.7735 19.9304 32.6384 19.5252 32.4109 19.5252C31.8422 19.5252 31.2025 19.8949 30.4916 20.6342C29.7949 21.3734 29.2191 22.1625 28.7642 23.0013C28.3235 23.8402 28.1031 24.4586 28.1031 24.8567C28.1031 24.9704 28.1173 25.0486 28.1457 25.0913C28.1884 25.1197 28.2808 25.1339 28.423 25.1339Z" fill="#151515"/>
<path d="M43.666 16.8381C44.2063 16.8381 44.7394 17.158 45.2655 17.7978C45.7915 18.4376 46.0545 19.0134 46.0545 19.5252C46.0545 19.8664 45.9053 20.037 45.6067 20.037C45.4361 20.037 45.1873 19.973 44.8603 19.8451C44.5333 19.7029 44.1992 19.6318 43.858 19.6318C43.531 19.6318 43.0405 19.7456 42.3865 19.973C41.7467 20.2005 41.4268 20.4991 41.4268 20.8687C41.4268 21.0109 41.6187 21.2171 42.0026 21.4872C42.3865 21.7573 42.8059 22.0346 43.2608 22.3189C43.7158 22.6032 44.1352 23.0013 44.5191 23.5132C44.9029 24.0108 45.0949 24.5581 45.0949 25.1553C45.0949 25.7382 44.6612 26.3282 43.794 26.9253C42.9409 27.5224 41.9315 27.821 40.7657 27.821C39.6141 27.821 38.626 27.558 37.8014 27.0319C36.9768 26.5059 36.5645 25.9656 36.5645 25.4112C36.5645 24.8567 36.792 24.5794 37.2469 24.5794C37.4317 24.5794 37.6521 24.6505 37.908 24.7927C38.6189 25.205 39.5004 25.4112 40.5524 25.4112C41.6187 25.4112 42.1519 25.269 42.1519 24.9846C42.1519 24.7003 41.9457 24.3875 41.5334 24.0463C41.1354 23.6909 40.6946 23.3639 40.2112 23.0653C39.7421 22.7667 39.3013 22.4042 38.889 21.9777C38.4909 21.5369 38.2919 21.1104 38.2919 20.6981C38.2919 19.9304 38.9885 19.0987 40.3818 18.203C41.7751 17.2931 42.8699 16.8381 43.666 16.8381ZM56.308 21.7644C56.5639 21.9919 56.6918 22.1981 56.6918 22.3829C56.6918 22.5677 56.6065 22.9516 56.4359 23.5345C56.2653 24.1174 56.1516 24.5723 56.0947 24.8993C56.0379 25.2121 55.9881 25.4609 55.9454 25.6457C55.917 25.8306 55.8957 25.9799 55.8815 26.0936C55.8672 26.1931 55.8388 26.3211 55.7962 26.4775C55.7677 26.6338 55.7393 26.7618 55.7109 26.8613C55.6966 26.9466 55.6682 27.0533 55.6256 27.1812C55.5971 27.295 55.5616 27.3874 55.5189 27.4585C55.4763 27.5153 55.4265 27.5793 55.3696 27.6504C55.2843 27.7641 55.1422 27.821 54.9431 27.821C54.7441 27.821 54.4953 27.622 54.1967 27.2239C53.9124 26.8258 53.6991 26.3424 53.5569 25.7737C52.2205 27.1386 51.0973 27.821 50.1874 27.821C49.5761 27.821 48.915 27.4869 48.2041 26.8187C47.4933 26.1362 47.1378 25.4609 47.1378 24.7927C47.1378 24.1103 47.4435 23.1435 48.0548 21.8924C48.6662 20.6413 49.4979 19.4825 50.55 18.4163C51.6163 17.35 52.6684 16.8168 53.7062 16.8168C54.3033 16.8168 54.9929 17.1651 55.7748 17.8618C56.5568 18.5584 56.9478 19.1982 56.9478 19.7811C56.9478 20.3498 56.7345 21.0109 56.308 21.7644ZM50.1021 25.1339C50.6708 25.1339 51.4243 24.7501 52.3627 23.9823C53.3152 23.2004 53.9053 22.2194 54.1327 21.0393C54.147 20.8687 54.2678 20.7692 54.4953 20.7408C54.4526 19.9304 54.3176 19.5252 54.0901 19.5252C53.5214 19.5252 52.8816 19.8949 52.1707 20.6342C51.4741 21.3734 50.8983 22.1625 50.4433 23.0013C50.0026 23.8402 49.7822 24.4586 49.7822 24.8567C49.7822 24.9704 49.7965 25.0486 49.8249 25.0913C49.8675 25.1197 49.96 25.1339 50.1021 25.1339ZM67.6057 21.7644C67.8616 21.9919 67.9896 22.1981 67.9896 22.3829C67.9896 22.5677 67.9043 22.9516 67.7337 23.5345C67.5631 24.1174 67.4493 24.5723 67.3925 24.8993C67.3356 25.2121 67.2858 25.4609 67.2432 25.6457C67.2148 25.8306 67.1934 25.9799 67.1792 26.0936C67.165 26.1931 67.1366 26.3211 67.0939 26.4775C67.0655 26.6338 67.037 26.7618 67.0086 26.8613C66.9944 26.9466 66.966 27.0533 66.9233 27.1812C66.8949 27.295 66.8593 27.3874 66.8167 27.4585C66.774 27.5153 66.7243 27.5793 66.6674 27.6504C66.5821 27.7641 66.4399 27.821 66.2409 27.821C66.0418 27.821 65.793 27.622 65.4945 27.2239C65.2101 26.8258 64.9969 26.3424 64.8547 25.7737C63.5183 27.1386 62.3951 27.821 61.4852 27.821C60.8738 27.821 60.2127 27.4869 59.5019 26.8187C58.791 26.1362 58.4356 25.4609 58.4356 24.7927C58.4356 24.1103 58.7413 23.1435 59.3526 21.8924C59.9639 20.6413 60.7956 19.4825 61.8477 18.4163C62.914 17.35 63.9661 16.8168 65.004 16.8168C65.6011 16.8168 66.2906 17.1651 67.0726 17.8618C67.8545 18.5584 68.2455 19.1982 68.2455 19.7811C68.2455 20.3498 68.0323 21.0109 67.6057 21.7644ZM61.3999 25.1339C61.9686 25.1339 62.7221 24.7501 63.6604 23.9823C64.613 23.2004 65.203 22.2194 65.4305 21.0393C65.4447 20.8687 65.5656 20.7692 65.793 20.7408C65.7504 19.9304 65.6153 19.5252 65.3878 19.5252C64.8191 19.5252 64.1794 19.8949 63.4685 20.6342C62.7719 21.3734 62.1961 22.1625 61.7411 23.0013C61.3004 23.8402 61.08 24.4586 61.08 24.8567C61.08 24.9704 61.0942 25.0486 61.1226 25.0913C61.1653 25.1197 61.2577 25.1339 61.3999 25.1339ZM71.0129 20.4209L70.8849 18.0111C70.8849 17.2149 71.1337 16.8168 71.6313 16.8168C71.9157 16.8168 72.1929 16.9234 72.463 17.1367C72.7474 17.35 72.9607 17.6841 73.1028 18.139C73.5862 17.7125 74.1123 17.3713 74.6809 17.1154C75.2639 16.8452 75.7757 16.7102 76.2164 16.7102C77.2543 16.7102 77.7732 16.959 77.7732 17.4566C77.7732 17.7125 77.7234 17.9044 77.6239 18.0324C77.5386 18.1461 77.4675 18.2314 77.4107 18.2883C77.368 18.3452 77.2827 18.4234 77.1548 18.5229C77.041 18.6082 76.9557 18.6722 76.8988 18.7148C76.5718 18.9281 76.3373 19.0774 76.1951 19.1627C75.5553 19.5607 75.0079 20.0441 74.553 20.6128C74.098 21.1673 73.7568 21.9421 73.5293 22.9374C73.1455 24.5723 72.7687 25.795 72.3991 26.6054C72.0436 27.4016 71.6384 27.7997 71.1835 27.7997C70.7428 27.7997 70.4086 27.5864 70.1812 27.1599C69.9679 26.7334 69.8613 26.3353 69.8613 25.9656C69.8613 25.5818 69.9963 25.0131 70.2665 24.2596C70.5508 23.506 70.7428 22.8592 70.8423 22.3189C70.956 21.7644 71.0129 21.1318 71.0129 20.4209Z" fill="white"/>
</svg>
