<svg width="19" height="21" viewBox="0 0 19 21" fill="none" xmlns="http://www.w3.org/2000/svg">
<path d="M18.1201 6.95C17.0701 2.33 13.0401 0.25 9.5001 0.25C9.5001 0.25 9.5001 0.25 9.4901 0.25C5.9601 0.25 1.9201 2.32 0.870095 6.94C-0.299905 12.1 2.8601 16.47 5.7201 19.22C6.7801 20.24 8.1401 20.75 9.5001 20.75C10.8601 20.75 12.2201 20.24 13.2701 19.22C16.1301 16.47 19.2901 12.11 18.1201 6.95ZM9.5001 11.96C7.7601 11.96 6.3501 10.55 6.3501 8.81C6.3501 7.07 7.7601 5.66 9.5001 5.66C11.2401 5.66 12.6501 7.07 12.6501 8.81C12.6501 10.55 11.2401 11.96 9.5001 11.96Z" fill="#007BFF"/>
</svg>
