<svg width="35" height="35" viewBox="0 0 35 35" fill="none" xmlns="http://www.w3.org/2000/svg">
<path d="M17.4998 33.1771C8.85192 33.1771 1.82275 26.1479 1.82275 17.5C1.82275 8.85207 8.85192 1.82291 17.4998 1.82291C26.1478 1.82291 33.1769 8.85207 33.1769 17.5C33.1769 26.1479 26.1478 33.1771 17.4998 33.1771ZM17.4998 4.01041C10.0623 4.01041 4.01025 10.0625 4.01025 17.5C4.01025 24.9375 10.0623 30.9896 17.4998 30.9896C24.9373 30.9896 30.9894 24.9375 30.9894 17.5C30.9894 10.0625 24.9373 4.01041 17.4998 4.01041Z" fill="#007BFF"/>
<path d="M23.3332 18.5938H11.6665C11.0686 18.5938 10.5728 18.0979 10.5728 17.5C10.5728 16.9021 11.0686 16.4062 11.6665 16.4062H23.3332C23.9311 16.4062 24.4269 16.9021 24.4269 17.5C24.4269 18.0979 23.9311 18.5938 23.3332 18.5938Z" fill="#007BFF"/>
<path d="M17.5 24.4271C16.9021 24.4271 16.4062 23.9312 16.4062 23.3333V11.6667C16.4062 11.0687 16.9021 10.5729 17.5 10.5729C18.0979 10.5729 18.5938 11.0687 18.5938 11.6667V23.3333C18.5938 23.9312 18.0979 24.4271 17.5 24.4271Z" fill="#007BFF"/>
</svg>
