<svg width="28" height="60" viewBox="0 0 28 60" fill="none" xmlns="http://www.w3.org/2000/svg">
<path d="M1.85296 19.6901C1.86289 19.2333 1.8468 18.7758 1.80505 18.3208L1.31015 12.9393C0.988432 9.44045 2.17126 4.9512 4.63993 2.46647C6.76189 0.3307 10.0622 0 13.3003 0H14.7008C17.9388 0 21.2392 0.3307 23.3611 2.46647C25.8298 4.9512 27.0126 9.44045 26.6909 12.9393L26.1957 18.3208C26.1539 18.7758 26.1378 19.233 26.1478 19.6901L26.7953 45.2683C26.7953 49.1785 23.6459 60 19.7606 60H8.23974C4.35483 60 1.20508 49.1785 1.20508 45.2683L1.85296 19.6901Z" fill="#C726E1"/>
<path d="M24.2874 21.7263C24.2779 21.2909 25.5849 19.3011 25.625 18.8671L26.0969 13.7375C26.4036 10.4022 25.2762 6.12275 22.9229 3.75445C20.9002 1.71858 17.7542 1.40338 14.6677 1.40338H13.3326C10.2462 1.40338 7.1002 1.71858 5.07748 3.75445C2.7245 6.12309 1.59677 10.4022 1.90343 13.7375L2.3754 18.8671C2.41544 19.3008 3.72216 21.2905 3.71258 21.7263V45.5157C3.71258 49.2429 4.80574 58.5966 8.50891 58.5966H19.4908C23.1943 58.5966 24.2874 49.2433 24.2874 45.5157V21.7263Z" fill="#DA48FF"/>
<path d="M2.68752 20.7979V21.9946L0.0227412 22.655C0.0227412 22.655 -0.428347 20.7979 2.68752 20.7979Z" fill="#C726E1"/>
<path d="M3.3436 33.3959C3.3436 33.471 3.34326 33.5461 3.34326 33.6212C3.34326 39.5738 3.71221 45.5161 3.71221 45.5161C3.71221 45.5161 5.188 41.1832 5.188 39.5738V33.7452C4.57845 33.5995 3.96205 33.4803 3.3436 33.3959Z" fill="#45474A"/>
<path d="M5.18829 33.0576V27.6276C5.18829 26.6992 3.7125 21.7267 3.7125 21.7267C3.7125 21.7267 3.38838 26.95 3.34766 32.5078C3.96953 32.6608 4.58114 32.8509 5.18829 33.0576Z" fill="#45474A"/>
<path d="M24.6558 33.3959C24.6558 33.471 24.6561 33.5461 24.6561 33.6212C24.6561 39.5738 24.2872 45.5161 24.2872 45.5161C24.2872 45.5161 22.811 41.1832 22.811 39.5738V33.7452C23.4209 33.5995 24.0373 33.4803 24.6558 33.3959Z" fill="#45474A"/>
<path d="M22.811 33.0576V27.6276C22.811 26.6992 24.2872 21.7267 24.2872 21.7267C24.2872 21.7267 24.6113 26.95 24.652 32.5078C24.0298 32.6608 23.4182 32.8509 22.811 33.0576Z" fill="#45474A"/>
<path d="M25.3125 20.7979V21.9947L27.9773 22.655C27.9773 22.655 28.4284 20.7979 25.3125 20.7979Z" fill="#C726E1"/>
<path d="M5.86491 26.0178L3.65088 17.4141C3.65088 17.4141 5.98778 14.1336 13.9999 14.1336C22.0121 14.1336 24.349 17.4141 24.349 17.4141L22.1349 26.0178C22.1349 26.0178 17.6726 24.9654 13.9999 24.9654C10.3272 24.9658 5.86491 26.0178 5.86491 26.0178ZM21.4415 45.0661C20.0999 45.3779 16.676 46.011 13.9999 46.011C11.3238 46.011 7.89995 45.3779 6.55832 45.0661C6.19861 44.9824 5.85293 45.2497 5.83993 45.6211L5.56921 53.4687C5.56168 53.6847 5.67154 53.8879 5.85601 53.9978C8.98523 55.8632 13.9999 55.6051 13.9999 55.6051C13.9999 55.6051 19.0146 55.8632 22.1438 53.9978C22.3283 53.8879 22.4382 53.6843 22.4306 53.4687L22.1599 45.6211C22.1469 45.2497 21.8012 44.9824 21.4415 45.0661Z" fill="#45474A"/>
<path d="M3.65088 4.51371C5.48364 4.05349 6.66955 1.95113 6.59528 1.40341C6.06581 1.69553 5.57708 2.05379 5.14071 2.49265C4.57051 3.0669 4.07322 3.75448 3.65088 4.51371Z" fill="#E9E8D8"/>
<path d="M24.3491 4.51371C22.516 4.05349 21.3304 1.95113 21.4047 1.40341C21.9341 1.69553 22.4229 2.05379 22.8592 2.49265C23.4294 3.0669 23.9267 3.75448 24.3491 4.51371Z" fill="#E9E8D8"/>
</svg>
