<svg width="30" height="30" viewBox="0 0 30 30" fill="none" xmlns="http://www.w3.org/2000/svg">
<rect width="30" height="30" rx="5" fill="#007BFF"/>
<path d="M15 23.1075C14.4825 23.1075 13.995 22.845 13.65 22.3875L12.525 20.8875C12.5025 20.8575 12.4125 20.82 12.375 20.8125H12C8.8725 20.8125 6.9375 19.965 6.9375 15.75V12C6.9375 8.685 8.685 6.9375 12 6.9375H18C21.315 6.9375 23.0625 8.685 23.0625 12V15.75C23.0625 19.065 21.315 20.8125 18 20.8125H17.625C17.565 20.8125 17.5125 20.8425 17.475 20.8875L16.35 22.3875C16.005 22.845 15.5175 23.1075 15 23.1075ZM12 8.0625C9.315 8.0625 8.0625 9.315 8.0625 12V15.75C8.0625 19.14 9.225 19.6875 12 19.6875H12.375C12.7575 19.6875 13.1925 19.905 13.425 20.2125L14.55 21.7125C14.8125 22.0575 15.1875 22.0575 15.45 21.7125L16.575 20.2125C16.8225 19.8825 17.2125 19.6875 17.625 19.6875H18C20.685 19.6875 21.9375 18.435 21.9375 15.75V12C21.9375 9.315 20.685 8.0625 18 8.0625H12Z" fill="white"/>
<path d="M18.75 12.5625H11.25C10.9425 12.5625 10.6875 12.3075 10.6875 12C10.6875 11.6925 10.9425 11.4375 11.25 11.4375H18.75C19.0575 11.4375 19.3125 11.6925 19.3125 12C19.3125 12.3075 19.0575 12.5625 18.75 12.5625Z" fill="white"/>
<path d="M15.75 16.3125H11.25C10.9425 16.3125 10.6875 16.0575 10.6875 15.75C10.6875 15.4425 10.9425 15.1875 11.25 15.1875H15.75C16.0575 15.1875 16.3125 15.4425 16.3125 15.75C16.3125 16.0575 16.0575 16.3125 15.75 16.3125Z" fill="white"/>
</svg>
