<svg width="22" height="20" viewBox="0 0 22 20" fill="none" xmlns="http://www.w3.org/2000/svg">
<path d="M10.9999 14.33C8.60992 14.33 6.66992 12.39 6.66992 10C6.66992 7.61001 8.60992 5.67001 10.9999 5.67001C13.3899 5.67001 15.3299 7.61001 15.3299 10C15.3299 12.39 13.3899 14.33 10.9999 14.33ZM10.9999 7.17001C9.4399 7.17001 8.16992 8.44 8.16992 10C8.16992 11.56 9.4399 12.83 10.9999 12.83C12.5599 12.83 13.8299 11.56 13.8299 10C13.8299 8.44 12.5599 7.17001 10.9999 7.17001Z" fill="#BABABA"/>
<path d="M11.0001 19.02C7.24008 19.02 3.69008 16.82 1.25008 13C0.19008 11.35 0.19008 8.66 1.25008 7.00001C3.70008 3.18001 7.25008 0.980011 11.0001 0.980011C14.7501 0.980011 18.3001 3.18001 20.7401 7.00001C21.8001 8.65 21.8001 11.34 20.7401 13C18.3001 16.82 14.7501 19.02 11.0001 19.02ZM11.0001 2.48001C7.77008 2.48001 4.68008 4.42001 2.52008 7.81001C1.77008 8.98 1.77008 11.02 2.52008 12.19C4.68008 15.58 7.77008 17.52 11.0001 17.52C14.2301 17.52 17.3201 15.58 19.4801 12.19C20.2301 11.02 20.2301 8.98 19.4801 7.81001C17.3201 4.42001 14.2301 2.48001 11.0001 2.48001Z" fill="#BABABA"/>
</svg>
