<svg width="20" height="20" viewBox="0 0 20 20" fill="none" xmlns="http://www.w3.org/2000/svg">
<path d="M10 20C15.5228 20 20 15.5228 20 10C20 4.47715 15.5228 0 10 0C4.47715 0 0 4.47715 0 10C0 15.5228 4.47715 20 10 20Z" fill="#5F259F"/>
<path d="M14.5386 7.39025C14.5386 6.99933 14.2034 6.66409 13.8125 6.66409H12.4718L9.39931 3.14468C9.12004 2.80944 8.67315 2.69779 8.22627 2.80944L7.16488 3.14468C6.99726 3.20065 6.94129 3.42395 7.05323 3.53559L10.405 6.72006H5.32077C5.15315 6.72006 5.0415 6.83171 5.0415 6.99933V7.55787C5.0415 7.94878 5.37674 8.28402 5.76766 8.28402H6.54978V10.9656C6.54978 12.9768 7.61117 14.1501 9.39901 14.1501C9.95755 14.1501 10.4047 14.0941 10.9633 13.8708V15.6587C10.9633 16.1615 11.3542 16.5524 11.857 16.5524H12.6392C12.8068 16.5524 12.9744 16.3848 12.9744 16.2172V8.22834H14.2594C14.427 8.22834 14.5386 8.11669 14.5386 7.94908V7.39025ZM10.9633 12.1946C10.628 12.3623 10.1811 12.4182 9.8459 12.4182C8.95213 12.4182 8.50524 11.9713 8.50524 10.9656V8.28402H10.9633V12.1946Z" fill="white"/>
</svg>
