<svg width="24" height="24" viewBox="0 0 512 512" fill="none" stroke="#FF95AE" stroke-width="32" stroke-linecap="round" stroke-linejoin="round" xmlns="http://www.w3.org/2000/svg">
    <path d="M391.59 330.55l-73.77-73.77a16 16 0 0 0-22.63 0l-32.5 32.49a371.77 371.77 0 0 1-122.73-122.73l32.49-32.49a16 16 0 0 0 0-22.63l-73.77-73.77a16 16 0 0 0-22.63 0l-43.5 43.5a56.44 56.44 0 0 0-16.48 45.05c5.5 49.89 30.57 108.38 88.76 166.56S297.56 445 347.45 450.5a56.44 56.44 0 0 0 45.05-16.48l43.5-43.5a16 16 0 0 0 0-22.63z"/>
</svg>
