<svg width="30" height="30" viewBox="0 0 30 30" fill="none" xmlns="http://www.w3.org/2000/svg">
<rect width="30" height="30" rx="5" fill="#007BFF"/>
<path d="M19.0875 23.0625C18.24 23.0625 17.3475 22.86 16.425 22.47C15.525 22.0875 14.6175 21.5625 13.7325 20.925C12.855 20.28 12.0075 19.56 11.205 18.7725C10.41 17.97 9.69 17.1225 9.0525 16.2525C8.4075 15.3525 7.89 14.4525 7.5225 13.5825C7.1325 12.6525 6.9375 11.7525 6.9375 10.905C6.9375 10.32 7.0425 9.765 7.245 9.2475C7.455 8.715 7.7925 8.22 8.25 7.7925C8.8275 7.2225 9.4875 6.9375 10.1925 6.9375C10.485 6.9375 10.785 7.005 11.04 7.125C11.3325 7.26 11.58 7.4625 11.76 7.7325L13.5 10.185C13.6575 10.4025 13.7775 10.6125 13.86 10.8225C13.9575 11.0475 14.01 11.2725 14.01 11.49C14.01 11.775 13.9275 12.0525 13.77 12.315C13.6575 12.5175 13.485 12.735 13.2675 12.9525L12.7575 13.485C12.765 13.5075 12.7725 13.5225 12.78 13.5375C12.87 13.695 13.05 13.965 13.395 14.37C13.7625 14.79 14.1075 15.1725 14.4525 15.525C14.895 15.96 15.2625 16.305 15.6075 16.59C16.035 16.95 16.3125 17.13 16.4775 17.2125L16.4625 17.25L17.01 16.71C17.2425 16.4775 17.4675 16.305 17.685 16.1925C18.0975 15.9375 18.6225 15.8925 19.1475 16.11C19.3425 16.1925 19.5525 16.305 19.7775 16.4625L22.2675 18.2325C22.545 18.42 22.7475 18.66 22.8675 18.945C22.98 19.23 23.0325 19.4925 23.0325 19.755C23.0325 20.115 22.95 20.475 22.7925 20.8125C22.635 21.15 22.44 21.4425 22.1925 21.7125C21.765 22.185 21.3 22.5225 20.76 22.74C20.2425 22.95 19.68 23.0625 19.0875 23.0625ZM10.1925 8.0625C9.78 8.0625 9.3975 8.2425 9.03 8.6025C8.685 8.925 8.445 9.2775 8.295 9.66C8.1375 10.05 8.0625 10.4625 8.0625 10.905C8.0625 11.6025 8.2275 12.36 8.5575 13.14C8.895 13.935 9.3675 14.76 9.9675 15.585C10.5675 16.41 11.25 17.2125 12 17.97C12.75 18.7125 13.56 19.4025 14.3925 20.01C15.2025 20.6025 16.035 21.0825 16.86 21.4275C18.1425 21.975 19.3425 22.1025 20.3325 21.69C20.715 21.5325 21.0525 21.2925 21.36 20.9475C21.5325 20.76 21.6675 20.5575 21.78 20.3175C21.87 20.13 21.915 19.935 21.915 19.74C21.915 19.62 21.8925 19.5 21.8325 19.365C21.81 19.32 21.765 19.2375 21.6225 19.14L19.1325 17.37C18.9825 17.265 18.8475 17.19 18.72 17.1375C18.555 17.07 18.4875 17.0025 18.2325 17.16C18.0825 17.235 17.9475 17.3475 17.7975 17.4975L17.2275 18.06C16.935 18.345 16.485 18.4125 16.14 18.285L15.9375 18.195C15.63 18.03 15.27 17.775 14.8725 17.4375C14.5125 17.13 14.1225 16.77 13.65 16.305C13.2825 15.93 12.915 15.5325 12.5325 15.09C12.18 14.6775 11.925 14.325 11.7675 14.0325L11.6775 13.8075C11.6325 13.635 11.6175 13.5375 11.6175 13.4325C11.6175 13.1625 11.715 12.9225 11.9025 12.735L12.465 12.15C12.615 12 12.7275 11.8575 12.8025 11.73C12.8625 11.6325 12.885 11.55 12.885 11.475C12.885 11.415 12.8625 11.325 12.825 11.235C12.7725 11.115 12.69 10.98 12.585 10.8375L10.845 8.3775C10.77 8.2725 10.68 8.1975 10.5675 8.145C10.4475 8.0925 10.32 8.0625 10.1925 8.0625ZM16.4625 17.2575L16.3425 17.7675L16.545 17.2425C16.5075 17.235 16.4775 17.2425 16.4625 17.2575Z" fill="white"/>
</svg>
