<svg width="16" height="13" viewBox="0 0 16 13" fill="none" xmlns="http://www.w3.org/2000/svg">
<path d="M6.5 6.04004H8V7.0907H6.5V6.04004Z" fill="#007BFF"/>
<path d="M12.225 4.55334C11.3382 3.02874 10.1285 1.73975 8.69 0.786735C8.02545 0.34422 7.26791 0.0793495 6.4835 0.0152495C5.69909 -0.0488505 4.91168 0.0897691 4.19 0.419005C3.55875 0.731841 3.00947 1.20142 2.58959 1.78718C2.16971 2.37294 1.89185 3.05728 1.78 3.78111C1.74 4.02802 1.71 4.26441 1.68 4.49556C1.21187 4.57528 0.785939 4.82718 0.478215 5.2063C0.170492 5.58542 0.00100414 6.0671 0 6.56536V9.78562C0 10.0643 0.105357 10.3315 0.292893 10.5285C0.48043 10.7256 0.734784 10.8363 1 10.8363V6.56536C1 6.2867 1.10536 6.01946 1.29289 5.82243C1.48043 5.62539 1.73478 5.5147 2 5.5147H11.365C12.3287 5.51609 13.2525 5.91891 13.9339 6.63483C14.6153 7.35076 14.9987 8.32137 15 9.33384V9.71733H14C13.7888 9.1763 13.3955 8.7359 12.8949 8.48016C12.3944 8.22443 11.8218 8.17126 11.2864 8.33081C10.7509 8.49036 10.2901 8.85145 9.99193 9.34518C9.69373 9.83891 9.57898 10.4307 9.66959 11.0077C9.76019 11.5846 10.0498 12.1063 10.4832 12.4732C10.9165 12.8402 11.4633 13.0266 12.0192 12.9969C12.575 12.9673 13.101 12.7237 13.4968 12.3126C13.8926 11.9014 14.1304 11.3516 14.165 10.768H15C15.2652 10.768 15.5196 10.6573 15.7071 10.4603C15.8946 10.2632 16 9.99598 16 9.71733V9.33384C15.998 8.20014 15.62 7.10263 14.931 6.23012C14.242 5.35762 13.2851 4.76469 12.225 4.55334ZM4.5 4.46404H2.465C2.465 4.30119 2.51 4.13308 2.54 3.93871C2.62639 3.36161 2.85182 2.81732 3.19488 2.35758C3.53794 1.89784 3.98722 1.53793 4.5 1.31206V4.46404ZM5.5 4.46404V1.09143C6.43348 0.964065 7.38017 1.17933 8.18 1.70081C9.27187 2.41535 10.2142 3.35542 10.95 4.46404H5.5ZM11.9 12.0183C11.6528 12.0183 11.4111 11.9412 11.2055 11.7969C11 11.6526 10.8398 11.4475 10.7452 11.2075C10.6505 10.9676 10.6258 10.7035 10.674 10.4487C10.7222 10.194 10.8413 9.95996 11.0161 9.77629C11.1909 9.59262 11.4137 9.46754 11.6561 9.41686C11.8986 9.36619 12.1499 9.39219 12.3784 9.4916C12.6068 9.591 12.802 9.75933 12.9393 9.9753C13.0767 10.1913 13.15 10.4452 13.15 10.7049C13.15 11.0533 13.0183 11.3873 12.7839 11.6336C12.5495 11.8799 12.2315 12.0183 11.9 12.0183Z" fill="#007BFF"/>
<path d="M6.08427 9.71735C5.8731 9.17632 5.47973 8.73592 4.97921 8.48018C4.4787 8.22445 3.90609 8.17128 3.37064 8.33083C2.8352 8.49037 2.37441 8.85147 2.0762 9.3452C1.778 9.83893 1.66325 10.4307 1.75386 11.0077C1.84446 11.5846 2.13408 12.1064 2.56745 12.4733C3.00082 12.8402 3.54759 13.0266 4.10344 12.997C4.65928 12.9673 5.18528 12.7237 5.58107 12.3126C5.97686 11.9015 6.21472 11.3516 6.24927 10.768H8.89927V10.6367C8.88938 10.3267 8.92308 10.017 8.99927 9.71735H6.08427ZM3.99927 12.0183C3.75204 12.0183 3.51037 11.9413 3.30481 11.797C3.09925 11.6526 2.93903 11.4475 2.84442 11.2076C2.74981 10.9676 2.72506 10.7035 2.77329 10.4488C2.82152 10.194 2.94057 9.95998 3.11539 9.77631C3.2902 9.59264 3.51293 9.46755 3.75541 9.41688C3.99788 9.3662 4.24922 9.39221 4.47763 9.49161C4.70603 9.59102 4.90126 9.75935 5.03861 9.97532C5.17596 10.1913 5.24927 10.4452 5.24927 10.705C5.24927 11.0533 5.11758 11.3873 4.88315 11.6336C4.64873 11.8799 4.33079 12.0183 3.99927 12.0183Z" fill="#007BFF"/>
</svg>
