<svg width="28" height="60" viewBox="0 0 28 60" fill="none" xmlns="http://www.w3.org/2000/svg">
<path d="M1.4007 15.918C1.21876 14.617 1.12744 13.3046 1.12744 11.9905V9.19456C1.12744 4.11664 5.16719 0 10.1503 0H14.0006H17.8509C22.834 0 26.8737 4.11664 26.8737 9.19456V11.9905C26.8737 13.3046 26.7824 14.617 26.6005 15.918L26.0611 19.7741C25.8612 21.2024 25.7709 22.6445 25.7902 24.0872L26.0078 40.1007C26.0207 41.0415 26.1663 41.9758 26.4403 42.8745C26.7274 43.8167 26.8737 44.7977 26.8737 45.7843V52.8906C26.8737 56.817 23.7502 60 19.8968 60H14.0006H8.10476C4.2517 60 1.12778 56.817 1.12778 52.8906V45.7839C1.12778 44.7974 1.27374 43.8164 1.56125 42.8741C1.83519 41.9755 1.98081 41.0412 1.99371 40.1003L2.21163 24.0869C2.23132 22.6441 2.14069 21.202 1.94075 19.7738L1.4007 15.918Z" fill="#FF6F00"/>
<path d="M25.8903 16.7108C26.062 15.4832 26.1482 14.2445 26.1482 13.0044V10.3658C26.1482 5.57397 22.3363 1.68909 17.6336 1.68909H14.0001H10.3667C5.66437 1.68909 1.85205 5.57362 1.85205 10.3658V13.0044C1.85205 14.2445 1.93827 15.4832 2.11003 16.7108L2.6192 20.3497C2.80793 21.6977 2.89313 23.0585 2.8748 24.42L2.66944 39.5317C2.65722 40.4196 2.51974 41.3013 2.26142 42.1491C1.9902 43.0381 1.85239 43.9638 1.85239 44.895V51.6011C1.85239 55.3064 4.80014 58.3103 8.43628 58.3103H14.0001H19.5643C23.2005 58.3103 26.1482 55.3064 26.1482 51.6011V44.895C26.1482 43.9638 26.0104 43.0381 25.7392 42.1491C25.4805 41.301 25.3431 40.4196 25.3312 39.5317L25.1258 24.42C25.1071 23.0585 25.1927 21.6977 25.3814 20.3497L25.8903 16.7108Z" fill="#FF8B00"/>
<path d="M2.89093 5.26225C2.15875 4.16815 5.33087 2.0301 6.26604 2.77622C7.20121 3.522 3.50092 6.17372 2.89093 5.26225Z" fill="#E9E8D8"/>
<path d="M1.82051 17.8592C1.82051 17.8592 0.347317 18.8952 0.103255 19.3922C-0.140807 19.8897 0.103256 20.3452 0.265851 20.3037C0.428446 20.2622 2.33952 19.4334 2.33952 19.4334L1.82051 17.8592Z" fill="#FF6600"/>
<path d="M4.12795 32.793C4.14221 30.1261 4.10555 27.8296 4.02951 26.1876C3.78545 20.9253 2.85028 16.7402 2.85028 16.7402C2.54206 22.9838 2.39983 28.0524 2.36182 32.1524C2.94295 32.4222 3.53358 32.5488 4.12795 32.793Z" fill="#45474A"/>
<path d="M2.35788 32.6408C2.26385 45.2944 3.1756 48.4391 3.1756 48.4391C3.81172 45.9025 4.09007 39.0826 4.12673 33.2434C3.54424 33.0576 2.95462 32.7726 2.35788 32.6408Z" fill="#45474A"/>
<path d="M23.8727 32.793C23.8584 30.1261 23.8951 27.8296 23.9711 26.1876C24.2152 20.9253 25.1503 16.7402 25.1503 16.7402C25.4585 22.9838 25.6008 28.0524 25.6388 32.1524C25.0577 32.4222 24.4667 32.5488 23.8727 32.793Z" fill="#45474A"/>
<path d="M25.6424 32.6408C25.7364 45.2944 24.8247 48.4391 24.8247 48.4391C24.1885 45.9025 23.9099 39.0826 23.8735 33.2434C24.4557 33.0576 25.0453 32.7726 25.6424 32.6408Z" fill="#45474A"/>
<path d="M6.29515 58.2936C6.13153 58.6451 5.31313 58.5984 4.46689 58.1895C3.62099 57.7806 3.06769 57.1639 3.23131 56.8125C3.39492 56.461 4.21332 56.5077 5.05956 56.9166C5.9058 57.3254 6.4591 57.9422 6.29515 58.2936Z" fill="#FFCC00"/>
<path d="M25.1092 5.26225C25.8414 4.16815 22.6693 2.0301 21.7341 2.77622C20.799 3.522 24.4993 6.17372 25.1092 5.26225Z" fill="#E9E8D8"/>
<path d="M26.1797 17.8592C26.1797 17.8592 27.6529 18.8952 27.8969 19.3923C28.141 19.8897 27.8969 20.3452 27.7343 20.3037C27.5717 20.2622 25.6606 19.4334 25.6606 19.4334L26.1797 17.8592Z" fill="#FF6600"/>
<path d="M21.7045 58.2936C21.8681 58.6451 22.6865 58.5984 23.5327 58.1895C24.3786 57.7806 24.9319 57.1639 24.7683 56.8125C24.6047 56.461 23.7863 56.5077 22.9401 56.9166C22.0938 57.3254 21.5409 57.9422 21.7045 58.2936Z" fill="#FFCC00"/>
<path d="M14 45.7459C19.9858 45.7459 22.6694 44.5442 22.6694 44.5442V53.7017C22.6694 53.7017 20.4569 56.2293 14 56.2293C7.54302 56.2293 5.33051 53.7017 5.33051 53.7017V44.5442C5.33051 44.5442 8.01417 45.7459 14 45.7459ZM14 10.0275C5.68422 10.0275 3.58203 14.6686 3.58203 14.6686L4.69507 23.7846C4.69507 23.7846 9.44324 22.7486 14 22.7486C18.5567 22.7486 23.3049 23.7846 23.3049 23.7846L24.4176 14.6686C24.4176 14.6686 22.3157 10.0275 14 10.0275Z" fill="#45474A"/>
</svg>
