<svg width="19" height="22" viewBox="0 0 19 22" fill="none" xmlns="http://www.w3.org/2000/svg">
<path d="M17.9951 7.45C16.9451 2.83 12.9151 0.75 9.3751 0.75C9.3751 0.75 9.3751 0.75 9.3651 0.75C5.8351 0.75 1.7951 2.82 0.745095 7.44C-0.424905 12.6 2.7351 16.97 5.5951 19.72C6.6551 20.74 8.0151 21.25 9.3751 21.25C10.7351 21.25 12.0951 20.74 13.1451 19.72C16.0051 16.97 19.1651 12.61 17.9951 7.45ZM9.3751 12.46C7.6351 12.46 6.2251 11.05 6.2251 9.31C6.2251 7.57 7.6351 6.16 9.3751 6.16C11.1151 6.16 12.5251 7.57 12.5251 9.31C12.5251 11.05 11.1151 12.46 9.3751 12.46Z" fill="#121212"/>
</svg>
