<svg width="50" height="29" viewBox="0 0 50 29" fill="none" xmlns="http://www.w3.org/2000/svg">
<path d="M50 14.5001C50.0023 22.5063 43.3044 28.9979 35.0399 29C26.7753 29.002 20.0745 22.5137 20.0723 14.5074C20.0723 14.5048 20.0723 14.5027 20.0723 14.5001C20.0701 6.49402 26.768 0.0021274 35.0321 5.22722e-07C43.2968 -0.00212636 49.9978 6.48649 50 14.4927C50 14.4952 50 14.4975 50 14.5001Z" fill="#FF9900"/>
<path d="M14.8675 0.00419259C6.65198 0.0547469 0 6.52979 0 14.5005C0 22.5023 6.70383 28.9967 14.9639 28.9967C18.8406 28.9967 22.3744 27.5654 25.0334 25.2197C25.0334 25.2197 25.0329 25.2193 25.0323 25.219H25.0355C25.5799 24.7383 26.0878 24.2197 26.5546 23.6667H23.4888C23.0795 23.1877 22.7074 22.6885 22.3732 22.1735H27.6606C27.9821 21.675 28.2733 21.1573 28.5317 20.6212H21.5002C21.2606 20.1235 21.0525 19.6145 20.8748 19.0982H29.1577C29.657 17.6532 29.9279 16.1073 29.9279 14.5003C29.9279 13.4349 29.8086 12.3962 29.583 11.3961H20.4356C20.5489 10.8814 20.6919 10.3729 20.8625 9.87324H29.1485C28.9632 9.34152 28.748 8.82338 28.5033 8.32111H21.4994C21.752 7.79822 22.0383 7.28957 22.358 6.79843H27.6415C27.2899 6.25575 26.9008 5.73728 26.4801 5.24613H23.5343C23.9897 4.72685 24.4912 4.23783 25.0355 3.78186C22.3762 1.43575 18.8415 0.00419259 14.9639 0.00419259C14.9317 0.00419259 14.8997 0.00402898 14.8675 0.00419259Z" fill="#CC0000"/>
<path d="M48.4998 22.0784C48.5812 22.0784 48.6604 22.0988 48.7378 22.1391C48.8155 22.1793 48.8752 22.2374 48.9185 22.3128C48.9617 22.3875 48.9833 22.4661 48.9833 22.5476C48.9833 22.6281 48.9619 22.706 48.9193 22.7806C48.8769 22.855 48.8171 22.9131 48.7401 22.9545C48.664 22.9952 48.5834 23.0159 48.4996 23.0159C48.4159 23.0159 48.3355 22.9952 48.2588 22.9545C48.182 22.913 48.1225 22.8552 48.0793 22.7806C48.0367 22.706 48.0156 22.6281 48.0156 22.5476C48.0156 22.4661 48.0371 22.3875 48.0805 22.3128C48.124 22.2374 48.1842 22.1798 48.2613 22.1391C48.3394 22.0988 48.4186 22.0784 48.4998 22.0784ZM48.4998 22.1561C48.4321 22.1561 48.3659 22.1731 48.3012 22.207C48.237 22.2409 48.1869 22.2888 48.1507 22.3523C48.1141 22.4148 48.0958 22.4796 48.0958 22.5476C48.0958 22.615 48.1137 22.6801 48.149 22.742C48.1852 22.8037 48.2352 22.8521 48.299 22.8868C48.3634 22.9213 48.4301 22.9383 48.4996 22.9383C48.5696 22.9383 48.6364 22.9213 48.7004 22.8868C48.7643 22.8521 48.8141 22.8037 48.8497 22.742C48.885 22.6801 48.9026 22.6152 48.9026 22.5476C48.9026 22.4796 48.8847 22.4146 48.8484 22.3523C48.8124 22.2888 48.7621 22.2409 48.6974 22.207C48.6334 22.173 48.5675 22.1561 48.4998 22.1561ZM48.2877 22.8064V22.3022H48.4671C48.5278 22.3022 48.5721 22.3068 48.5995 22.3166C48.6268 22.3259 48.6486 22.3418 48.665 22.3652C48.681 22.3883 48.6893 22.4128 48.6893 22.439C48.6893 22.476 48.6758 22.508 48.6484 22.5352C48.6217 22.5623 48.5854 22.5779 48.5405 22.5812C48.5589 22.5885 48.5736 22.5978 48.5851 22.608C48.6062 22.6276 48.6315 22.6608 48.6619 22.7078L48.7253 22.8064H48.6229L48.577 22.7271C48.5407 22.6646 48.5115 22.6257 48.489 22.6096C48.4736 22.5983 48.4512 22.5924 48.422 22.5924H48.3725V22.8069H48.288M48.3718 22.5226H48.4738C48.5224 22.5226 48.5554 22.5154 48.5731 22.5015C48.591 22.4871 48.6 22.4688 48.6 22.4455C48.6 22.4305 48.5959 22.4171 48.5873 22.4056C48.5785 22.3937 48.5667 22.3852 48.5513 22.3791C48.5363 22.3734 48.5083 22.3701 48.4674 22.3701H48.3721V22.5226" fill="#FCB340"/>
<path d="M19.9298 18.6591L20.1291 17.347C20.0202 17.347 19.8601 17.3926 19.7185 17.3926C19.1639 17.3926 19.0947 17.1055 19.1383 16.8957L19.6848 14.2568H20.5278L20.7016 12.7675H19.907L20.0688 11.865H18.4067C18.3715 11.8991 17.4663 16.9404 17.4663 17.5546C17.4663 18.4634 17.9929 18.8679 18.7356 18.8615C19.3169 18.8567 19.77 18.7008 19.9298 18.6591Z" fill="#1C31A5"/>
<path d="M20.4336 16.1578C20.4336 18.339 21.9196 18.8572 23.1859 18.8572C24.3547 18.8572 24.9676 18.5948 24.9676 18.5948L25.2483 17.1059C25.2483 17.1059 24.2607 17.495 23.458 17.495C21.747 17.495 22.0469 16.2591 22.0469 16.2591L25.3339 16.2688C25.3339 16.2688 25.5432 15.269 25.5432 14.8614C25.5432 13.8443 24.9712 12.5956 23.2219 12.5956C21.6198 12.596 20.4336 14.2682 20.4336 16.1578ZM23.2279 13.9778C24.1271 13.9778 23.9612 14.9568 23.9612 15.0362H22.1923C22.1923 14.9347 22.3594 13.9778 23.2279 13.9778Z" fill="#1C31A5"/>
<path d="M33.3169 18.6586L33.6022 16.9761C33.6022 16.9761 32.8199 17.3558 32.2837 17.3558C31.1533 17.3558 30.6999 16.5198 30.6999 15.6214C30.6999 13.7994 31.6723 12.7968 32.7549 12.7968C33.5669 12.7968 34.2182 13.2384 34.2182 13.2384L34.4783 11.6034C34.4783 11.6034 33.7092 11.0653 32.8814 11.0622C30.3912 11.0527 28.9663 12.7323 28.9663 15.6358C28.9663 17.5603 30.0215 18.87 31.9228 18.87C32.4603 18.87 33.3169 18.6586 33.3169 18.6586Z" fill="#1C31A5"/>
<path d="M11.1664 12.6197C10.0739 12.6197 9.2366 12.9599 9.2366 12.9599L9.00523 14.2895C9.00523 14.2895 9.69647 14.0174 10.7415 14.0174C11.3348 14.0174 11.7688 14.082 11.7688 14.5491C11.7688 14.8328 11.7158 14.9375 11.7158 14.9375C11.7158 14.9375 11.2477 14.8997 11.0308 14.8997C9.4754 14.8997 8.20557 15.4694 8.20557 17.1869C8.20557 18.5405 9.1552 18.8508 9.74376 18.8508C10.868 18.8508 11.313 18.1632 11.3387 18.1612L11.3257 18.7319H12.7286L13.3545 14.4814C13.3545 12.6776 11.7305 12.6197 11.1664 12.6197ZM11.4093 16.0712C11.4399 16.3306 11.34 17.5577 10.3804 17.5577C9.88562 17.5577 9.7571 17.1912 9.7571 16.9749C9.7571 16.5522 9.99404 16.0451 11.1614 16.0451C11.4333 16.0451 11.3635 16.0641 11.4093 16.0712Z" fill="#1C31A5"/>
<path d="M14.8461 18.8194C15.205 18.8194 17.2564 18.9079 17.2564 16.8571C17.2564 14.9395 15.3575 15.3185 15.3575 14.548C15.3575 14.1648 15.667 14.044 16.2329 14.044C16.4574 14.044 17.3217 14.1133 17.3217 14.1133L17.5225 12.7504C17.5225 12.7504 16.9632 12.6292 16.0526 12.6292C14.8739 12.6292 13.6776 13.085 13.6776 14.6445C13.6776 16.4118 15.6724 16.2342 15.6724 16.9786C15.6724 17.4755 15.1151 17.5164 14.6855 17.5164C13.9422 17.5164 13.2731 17.2692 13.2707 17.2812L13.0581 18.6301C13.0968 18.6415 13.5097 18.8194 14.8461 18.8194Z" fill="#1C31A5"/>
<path d="M46.4595 11.3833L46.1716 13.4625C46.1716 13.4625 45.5715 12.6601 44.6327 12.6601C42.8663 12.6601 41.9561 14.3653 41.9561 16.3242C41.9561 17.5889 42.6052 18.8285 43.9318 18.8285C44.8862 18.8285 45.4153 18.1837 45.4153 18.1837L45.3452 18.7343H46.8952L48.1124 11.3946L46.4595 11.3833ZM45.7752 15.4245C45.7752 16.2398 45.3584 17.3289 44.4949 17.3289C43.9214 17.3289 43.6525 16.8624 43.6525 16.1306C43.6525 14.9339 44.2073 14.1445 44.9076 14.1445C45.4808 14.1445 45.7752 14.5257 45.7752 15.4245Z" fill="#1C31A5"/>
<path d="M2.5399 18.7404L3.5098 13.199L3.65234 18.7404H4.74991L6.79762 13.199L5.89055 18.7404H7.52163L8.77761 11.3908L6.1866 11.3717L4.64537 15.8715L4.60315 11.3908H2.22865L0.95459 18.7404H2.5399Z" fill="#1C31A5"/>
<path d="M27.087 18.7508C27.5507 16.1961 27.7159 14.1785 29.0683 14.5963C29.2626 13.6075 29.7255 12.7476 29.9369 12.3291C29.9369 12.3291 29.87 12.2327 29.452 12.2327C28.7385 12.2327 27.7858 13.6355 27.7858 13.6355L27.9282 12.7682H26.4444L25.4507 18.7506L27.087 18.7508Z" fill="#1C31A5"/>
<path d="M36.6544 12.6197C35.5614 12.6197 34.7241 12.9599 34.7241 12.9599L34.4929 14.2895C34.4929 14.2895 35.1844 14.0174 36.229 14.0174C36.8224 14.0174 37.2563 14.082 37.2563 14.5491C37.2563 14.8328 37.2034 14.9375 37.2034 14.9375C37.2034 14.9375 36.7355 14.8997 36.5186 14.8997C34.963 14.8997 33.6934 15.4694 33.6934 17.1869C33.6934 18.5405 34.6428 18.8508 35.2314 18.8508C36.3553 18.8508 36.8006 18.1632 36.8261 18.1612L36.813 18.7319H38.2162L38.8419 14.4814C38.8421 12.6776 37.2181 12.6197 36.6544 12.6197ZM36.8969 16.0712C36.9273 16.3306 36.8275 17.5577 35.8681 17.5577C35.3729 17.5577 35.2446 17.1912 35.2446 16.9749C35.2446 16.5522 35.4813 16.0451 36.6488 16.0451C36.9209 16.0451 36.8513 16.0641 36.8969 16.0712Z" fill="#1C31A5"/>
<path d="M40.457 18.7509C40.7116 16.8714 41.183 14.2327 42.4381 14.5964C42.6322 13.6076 42.4451 13.6102 42.0272 13.6102C41.3132 13.6102 41.1551 13.6354 41.1551 13.6354L41.2977 12.7681H39.814L38.8203 18.7507L40.457 18.7509Z" fill="#1C31A5"/>
<path d="M20.3452 18.1908L20.5446 16.8789C20.4357 16.8789 20.2754 16.924 20.1341 16.924C19.5795 16.924 19.5183 16.6384 19.5536 16.4272L20.0017 13.7502H20.8446L21.0481 12.2991H20.2533L20.4151 11.3966H18.8219C18.7867 11.4306 17.8813 16.4722 17.8813 17.086C17.8813 17.9948 18.4081 18.3996 19.1508 18.3931C19.7325 18.3883 20.1854 18.2324 20.3452 18.1908Z" fill="white"/>
<path d="M20.8501 15.6895C20.8501 17.8707 22.3363 18.389 23.6024 18.389C24.7711 18.389 25.2853 18.1359 25.2853 18.1359L25.566 16.6473C25.566 16.6473 24.677 17.0267 23.8741 17.0267C22.1633 17.0267 22.4629 15.791 22.4629 15.791H25.7008C25.7008 15.791 25.9098 14.7908 25.9098 14.3833C25.9098 13.3663 25.3873 12.1272 23.638 12.1272C22.036 12.1275 20.8501 13.7997 20.8501 15.6895ZM23.6441 13.5095C24.5432 13.5095 24.3774 14.4883 24.3774 14.5675H22.6085C22.6085 14.4664 22.7757 13.5095 23.6441 13.5095Z" fill="white"/>
<path d="M33.7329 18.1904L34.018 16.5077C34.018 16.5077 33.2363 16.8874 32.6997 16.8874C31.5696 16.8874 31.1163 16.0514 31.1163 15.1532C31.1163 13.3311 32.0887 12.3287 33.1712 12.3287C33.9831 12.3287 34.6346 12.7703 34.6346 12.7703L34.8947 11.1353C34.8947 11.1353 33.9285 10.7566 33.1003 10.7566C31.261 10.7566 29.4717 12.3023 29.4717 15.2054C29.4717 17.1304 30.4379 18.4017 32.3392 18.4017C32.8767 18.4019 33.7329 18.1904 33.7329 18.1904Z" fill="white"/>
<path d="M11.5816 12.1513C10.4891 12.1513 9.65164 12.4914 9.65164 12.4914L9.42044 13.821C9.42044 13.821 10.1117 13.549 11.1566 13.549C11.7498 13.549 12.1839 13.6136 12.1839 14.0807C12.1839 14.3644 12.1307 14.4691 12.1307 14.4691C12.1307 14.4691 11.6627 14.4311 11.446 14.4311C10.0681 14.4311 8.62061 15.0008 8.62061 16.7183C8.62061 18.0717 9.57024 18.3822 10.1588 18.3822C11.2829 18.3822 11.7674 17.6756 11.7933 17.6735L11.7407 18.2633H13.1436L13.7695 14.0126C13.7695 12.2094 12.1457 12.1513 11.5816 12.1513ZM11.923 15.6122C11.9534 15.8718 11.7549 17.0889 10.7957 17.0889C10.3008 17.0889 10.1721 16.7228 10.1721 16.5061C10.1721 16.0837 10.4091 15.5765 11.5766 15.5765C11.8481 15.5769 11.8772 15.605 11.923 15.6122Z" fill="white"/>
<path d="M15.2609 18.3509C15.6198 18.3509 17.6714 18.4393 17.6714 16.3885C17.6714 14.4712 15.7723 14.8499 15.7723 14.0797C15.7723 13.6962 16.0819 13.5754 16.6476 13.5754C16.8723 13.5754 17.7364 13.6446 17.7364 13.6446L17.9374 12.2818C17.9374 12.2818 17.3781 12.1606 16.4674 12.1606C15.2888 12.1606 14.0924 12.6164 14.0924 14.1759C14.0924 15.943 16.0873 15.7656 16.0873 16.51C16.0873 17.0069 15.53 17.0473 15.1005 17.0473C14.3572 17.0473 13.688 16.8003 13.6856 16.812L13.4731 18.1611C13.5116 18.1726 13.9244 18.3509 15.2609 18.3509Z" fill="white"/>
<path d="M46.9299 10.9283L46.5863 12.9941C46.5863 12.9941 45.9866 12.1917 45.0477 12.1917C43.5879 12.1917 42.3711 13.8968 42.3711 15.8559C42.3711 17.1206 43.0201 18.3598 44.3469 18.3598C45.3012 18.3598 45.8303 17.7152 45.8303 17.7152L45.7602 18.2657H47.3099L48.5271 10.9258L46.9299 10.9283ZM46.1901 14.9563C46.1901 15.7715 45.7734 16.8605 44.9096 16.8605C44.3362 16.8605 44.0675 16.3942 44.0675 15.6624C44.0675 14.4658 44.6223 13.6762 45.3223 13.6762C45.8959 13.6761 46.1901 14.0578 46.1901 14.9563Z" fill="white"/>
<path d="M2.95609 18.2717L3.92598 12.7304L4.06835 18.2717H5.1661L7.21381 12.7304L6.30674 18.2717H7.93781L9.19397 10.9221H6.67169L5.10091 15.4315L5.01917 10.9221H2.69415L1.41992 18.2717H2.95609Z" fill="white"/>
<path d="M27.5033 18.2824C27.9671 15.7275 28.053 13.653 29.1597 14.0328C29.3535 13.0439 29.5404 12.6614 29.7518 12.2429C29.7518 12.2429 29.6527 12.2228 29.4446 12.2228C28.7311 12.2228 28.2025 13.1671 28.2025 13.1671L28.3445 12.2998H26.8611L25.8672 18.2824H27.5033Z" fill="white"/>
<path d="M37.4096 12.1513C36.3171 12.1513 35.4796 12.4914 35.4796 12.4914L35.2486 13.821C35.2486 13.821 35.9398 13.549 36.9847 13.549C37.578 13.549 38.0117 13.6136 38.0117 14.0807C38.0117 14.3644 37.9588 14.4691 37.9588 14.4691C37.9588 14.4691 37.4908 14.4311 37.274 14.4311C35.8962 14.4311 34.4487 15.0008 34.4487 16.7183C34.4487 18.0717 35.3982 18.3822 35.9868 18.3822C37.1108 18.3822 37.5954 17.6756 37.621 17.6735L37.5688 18.2633C37.5688 18.2633 38.9713 18.2633 38.9718 18.2633L39.5975 14.0126C39.5977 12.2094 37.9737 12.1513 37.4096 12.1513ZM37.7514 15.6122C37.7818 15.8718 37.5832 17.0889 36.6236 17.0889C36.1288 17.0889 36.0004 16.7228 36.0004 16.5061C36.0004 16.0837 36.2374 15.5765 37.4047 15.5765C37.6763 15.5769 37.7051 15.605 37.7514 15.6122Z" fill="white"/>
<path d="M40.8796 18.2824C41.3436 15.7275 41.4295 13.653 42.5359 14.0328C42.7299 13.0439 42.917 12.6614 43.1283 12.2429C43.1283 12.2429 43.0292 12.2228 42.8211 12.2228C42.1076 12.2228 41.579 13.1671 41.579 13.1671L41.721 12.2998H40.2375L39.2437 18.2824H40.8796Z" fill="white"/>
<path d="M48.4928 17.3591C48.5737 17.3591 48.6534 17.3792 48.7303 17.4201C48.8078 17.4597 48.8681 17.5179 48.9113 17.5934C48.9547 17.6683 48.976 17.7463 48.976 17.828C48.976 17.9086 48.9547 17.9865 48.912 18.0609C48.8696 18.1354 48.81 18.1938 48.7332 18.2349C48.6565 18.2758 48.5761 18.2964 48.4927 18.2964C48.4086 18.2964 48.3282 18.2758 48.2513 18.2349C48.1747 18.1935 48.1152 18.1354 48.0726 18.0609C48.0294 17.9865 48.0083 17.9086 48.0083 17.828C48.0083 17.7463 48.0297 17.6683 48.0732 17.5934C48.1167 17.5179 48.1772 17.46 48.2544 17.4201C48.3322 17.3792 48.4119 17.3591 48.4928 17.3591ZM48.4928 17.4363C48.4251 17.4363 48.3589 17.4533 48.2942 17.4875C48.2297 17.5209 48.1796 17.5691 48.1432 17.6323C48.1071 17.6946 48.0889 17.7599 48.0889 17.8276C48.0889 17.8954 48.1064 17.9602 48.1417 18.022C48.1777 18.0837 48.2277 18.1321 48.2922 18.167C48.356 18.201 48.4227 18.2182 48.4928 18.2182C48.5624 18.2182 48.6296 18.201 48.6935 18.167C48.7573 18.1321 48.8073 18.0837 48.8428 18.022C48.8784 17.9597 48.8958 17.8954 48.8958 17.8276C48.8958 17.7599 48.8777 17.6946 48.8416 17.6323C48.8056 17.5691 48.7554 17.5209 48.6906 17.4875C48.6264 17.4535 48.5607 17.4363 48.4928 17.4363ZM48.2809 18.0868V17.5824H48.4601C48.521 17.5824 48.5656 17.5871 48.5926 17.5968C48.62 17.6058 48.6414 17.622 48.6582 17.6454C48.6746 17.6686 48.6828 17.693 48.6828 17.7192C48.6828 17.756 48.669 17.7882 48.6416 17.8154C48.6149 17.8425 48.579 17.8582 48.534 17.8612C48.5519 17.8687 48.5668 17.8777 48.5783 17.8878C48.5991 17.9078 48.6247 17.9412 48.6551 17.9878L48.7188 18.0866H48.6159L48.5702 18.0073C48.5337 17.9446 48.5045 17.9057 48.4822 17.8898C48.4668 17.8782 48.4444 17.8725 48.4148 17.8725H48.3657V18.087L48.2809 18.0868ZM48.365 17.8029H48.467C48.5158 17.8029 48.5487 17.7959 48.5663 17.7818C48.584 17.7681 48.5933 17.7493 48.5933 17.7259C48.5933 17.711 48.5891 17.6976 48.5806 17.6863C48.572 17.6742 48.56 17.6655 48.5447 17.6595C48.5293 17.6537 48.5018 17.6508 48.4606 17.6508H48.3652V17.8029" fill="white"/>
</svg>
