<svg width="130" height="130" viewBox="0 0 130 130" fill="none" xmlns="http://www.w3.org/2000/svg">
<circle cx="65" cy="65" r="65" fill="#FF95AE" fill-opacity="0.2"/>
<circle cx="65" cy="65" r="45" fill="#FF95AE"/>
<path d="M81.6668 80.4167C81.6668 81.1 81.1002 81.6667 80.4168 81.6667H49.5835C48.9002 81.6667 48.3335 81.1 48.3335 80.4167C48.3335 79.7333 48.9002 79.1667 49.5835 79.1667H80.4168C81.1002 79.1667 81.6668 79.7333 81.6668 80.4167Z" fill="white"/>
<path d="M70.6501 52.5333L52.7501 70.4333C52.0667 71.1167 50.9667 71.1167 50.3001 70.4333H50.2834C47.9667 68.1 47.9667 64.3333 50.2834 62.0167L62.2001 50.1C64.5334 47.7667 68.3001 47.7667 70.6334 50.1C71.3167 50.75 71.3167 51.8667 70.6501 52.5333Z" fill="white"/>
<path d="M79.7002 59.15L74.6169 54.0667C73.9336 53.3833 72.8336 53.3833 72.1669 54.0667L54.2669 71.9667C53.5836 72.6333 53.5836 73.7333 54.2669 74.4167L59.3502 79.5167C61.6836 81.8333 65.4502 81.8333 67.7836 79.5167L79.6836 67.6C82.0502 65.2667 82.0502 61.4833 79.7002 59.15ZM66.2669 74.2L64.2502 76.2333C63.8336 76.65 63.1502 76.65 62.7169 76.2333C62.3002 75.8167 62.3002 75.1333 62.7169 74.7L64.7502 72.6667C65.1502 72.2667 65.8502 72.2667 66.2669 72.6667C66.6836 73.0833 66.6836 73.8 66.2669 74.2ZM72.8836 67.5833L68.8169 71.6667C68.4002 72.0667 67.7169 72.0667 67.2836 71.6667C66.8669 71.25 66.8669 70.5667 67.2836 70.1333L71.3669 66.05C71.7669 65.65 72.4669 65.65 72.8836 66.05C73.3002 66.4833 73.3002 67.1667 72.8836 67.5833Z" fill="white"/>
</svg>
