<svg width="24" height="24" viewBox="0 0 24 24" fill="none" xmlns="http://www.w3.org/2000/svg">
<path d="M18.4087 7.327C18.6407 5.849 18.4072 4.8435 17.6077 3.9325C16.7277 2.9295 15.1377 2.5 13.1032 2.5H7.19823C6.78273 2.5 6.42873 2.8025 6.36373 3.213L3.90473 18.806C3.85623 19.1135 4.09423 19.392 4.40523 19.392H8.05073L7.79923 20.9875C7.75673 21.2565 7.96473 21.5 8.23723 21.5H11.3102C11.6742 21.5 11.9837 21.2355 12.0402 20.876L12.0702 20.72L12.6492 17.049L12.6867 16.846C12.7432 16.4865 13.0532 16.222 13.4167 16.222H13.8762C16.8532 16.222 19.1842 15.0125 19.8652 11.5145C20.1497 10.053 20.0027 8.833 19.2502 7.9755C19.0222 7.7165 18.7392 7.502 18.4087 7.327Z" fill="#03A9F4"/>
<path d="M18.4087 7.327C18.6407 5.849 18.4072 4.8435 17.6077 3.9325C16.7277 2.9295 15.1377 2.5 13.1032 2.5H7.19823C6.78273 2.5 6.42873 2.8025 6.36373 3.213L3.90473 18.806C3.85623 19.1135 4.09423 19.392 4.40523 19.392H8.05073L8.96673 13.585L8.93823 13.767C9.00323 13.3565 9.35423 13.0535 9.76973 13.0535H11.5027C14.9057 13.0535 17.5702 11.671 18.3487 7.673C18.3717 7.5545 18.3912 7.44 18.4087 7.327Z" fill="#3949AB"/>
<path d="M8.94922 13.767C9.01422 13.3565 9.36522 13.0535 9.78072 13.0535H11.5137C17.4527 13.0535 18.1057 8.7935 18.4202 7.327C18.2237 7.223 17.3067 6.7225 15.3207 6.7225H10.6917C10.5782 6.7225 10.1052 6.775 9.96172 7.3465L8.94922 13.767Z" fill="#1A237E"/>
</svg>
