<svg width="44" height="44" viewBox="0 0 44 44" fill="none" xmlns="http://www.w3.org/2000/svg">
<rect width="44" height="44" rx="5" fill="white"/>
<path d="M24.85 13.95V17.75H23.35V13.95C23.35 13.68 23.11 13.55 22.95 13.55C22.9 13.55 22.85 13.56 22.8 13.58L14.87 16.57C14.34 16.77 14 17.27 14 17.84V18.51C13.09 19.19 12.5 20.28 12.5 21.51V17.84C12.5 16.65 13.23 15.59 14.34 15.17L22.28 12.17C22.5 12.09 22.73 12.05 22.95 12.05C23.95 12.05 24.85 12.86 24.85 13.95Z" fill="#FF85A2"/>
<path d="M31.4997 24.5V25.5C31.4997 25.77 31.2897 25.99 31.0097 26H29.5497C29.0197 26 28.5397 25.61 28.4997 25.09C28.4697 24.78 28.5897 24.49 28.7897 24.29C28.9697 24.1 29.2197 24 29.4897 24H30.9997C31.2897 24.01 31.4997 24.23 31.4997 24.5Z" fill="#FF85A2"/>
<path d="M29.48 22.95H30.5C31.05 22.95 31.5 22.5 31.5 21.95V21.51C31.5 19.44 29.81 17.75 27.74 17.75H16.26C15.41 17.75 14.63 18.03 14 18.51C13.09 19.19 12.5 20.28 12.5 21.51V28.24C12.5 30.31 14.19 32 16.26 32H27.74C29.81 32 31.5 30.31 31.5 28.24V28.05C31.5 27.5 31.05 27.05 30.5 27.05H29.63C28.67 27.05 27.75 26.46 27.5 25.53C27.29 24.77 27.54 24.04 28.04 23.55C28.41 23.17 28.92 22.95 29.48 22.95ZM24 22.75H17C16.59 22.75 16.25 22.41 16.25 22C16.25 21.59 16.59 21.25 17 21.25H24C24.41 21.25 24.75 21.59 24.75 22C24.75 22.41 24.41 22.75 24 22.75Z" fill="#FF85A2"/>
</svg>
