<svg width="228" height="14" viewBox="0 0 228 14" fill="none" xmlns="http://www.w3.org/2000/svg">
<path d="M32.5934 8.00618C32.9343 7.66519 32.9343 7.11233 32.5934 6.77134L27.0366 1.21455C26.6956 0.87356 26.1427 0.87356 25.8017 1.21455C25.4607 1.55554 25.4607 2.1084 25.8017 2.44939L30.7411 7.38876L25.8017 12.3281C25.4607 12.6691 25.4607 13.222 25.8017 13.563C26.1427 13.904 26.6956 13.904 27.0366 13.563L32.5934 8.00618ZM0.5 8.26193L31.9759 8.26193L31.9759 6.5156L0.5 6.5156L0.5 8.26193Z" fill="#757575"/>
<line x1="49.4395" y1="6.5156" x2="80.9154" y2="6.5156" stroke="#757575" stroke-width="1.74633"/>
<line x1="98.3784" y1="6.51559" x2="129.854" y2="6.51559" stroke="#757575" stroke-width="1.74633"/>
<line x1="147.318" y1="6.51559" x2="178.794" y2="6.51559" stroke="#757575" stroke-width="1.74633"/>
<line x1="196.257" y1="6.51559" x2="227.733" y2="6.51559" stroke="#757575" stroke-width="1.74633"/>
</svg>
